#!OML:ASF E:\acrobat2\Project_11_07_03\Capture day 1\Session 1\Acrobat.ASF
:FULLY-SPECIFIED
:DEGREES
1252
root 6.61243 28.0486 26.3049 8.51575 -3.9843 1.80439
lowerback 5.59095 0.917851 7.82939
upperback 1.94042 1.67447 2.8607
thorax -0.986288 0.841239 -1.53245
lowerneck -4.97706 -2.63097 -10.4982
upperneck 19.4842 -3.94917 8.50884
head 7.11889 -1.9582 4.24488
rclavicle -2.78299e-014 -8.11041e-014
rhumerus -33.4899 -20.8877 -65.3877
rradius 31.196
rwrist -8.37273
rhand -14.8198 -22.0491
rfingers 7.12502
rthumb 11.3385 -51.7226
lclavicle -2.78299e-014 -8.11041e-014
lhumerus -29.2911 -6.89481 75.6613
lradius 40.1346
lwrist 8.53984
lhand -20.1006 -24.8367
lfingers 7.12502
lthumb 6.24267 5.05127
rfemur -14.2481 -5.02653 17.3473
rtibia 21.7313
rfoot -23.6039 -15.3737
rtoes -25.3751
lfemur -24.896 0.566841 -25.7604
ltibia 22.9011
lfoot 3.15936 -9.78499
ltoes 31.2706
1253
root 6.58529 28.0371 26.3474 8.59527 -4.02012 1.67691
lowerback 5.7138 0.937397 7.86191
upperback 1.91585 1.71596 2.79738
thorax -1.07392 0.858664 -1.62143
lowerneck -5.23308 -2.71399 -10.51
upperneck 19.5801 -4.10419 8.82817
head 7.21616 -2.0028 4.34122
rclavicle 9.14409e-015 -1.59028e-015
rhumerus -33.2084 -20.747 -65.9631
rradius 31.462
rwrist -7.79553
rhand -14.8889 -21.6002
rfingers 7.12502
rthumb 11.2719 -51.2774
lclavicle 9.14409e-015 -1.59028e-015
lhumerus -29.7545 -7.23 75.8665
lradius 40.4024
lwrist 8.02183
lhand -20.1114 -25.267
lfingers 7.12502
lthumb 6.23227 4.62137
rfemur -13.7524 -5.07259 17.6557
rtibia 20.126
rfoot -24.1209 -15.8982
rtoes -24.9097
lfemur -25.8307 0.696099 -25.4131
ltibia 23.7867
lfoot 5.40651 -10.5054
ltoes 33.6348
1254
root 6.55569 28.021 26.3852 8.63247 -4.10075 1.51588
lowerback 5.89745 0.958133 7.87163
upperback 1.9248 1.76157 2.72154
thorax -1.16048 0.878818 -1.71213
lowerneck -5.45409 -2.79251 -10.4595
upperneck 19.5922 -4.25196 9.10181
head 7.27789 -2.04309 4.41087
rclavicle -1.90833e-014 -3.49861e-014
rhumerus -32.918 -20.5477 -66.5997
rradius 31.7475
rwrist -7.30863
rhand -15.0442 -21.1956
rfingers 7.12502
rthumb 11.1222 -50.8808
lclavicle -1.90833e-014 -3.49861e-014
lhumerus -30.0479 -7.65301 75.9916
lradius 40.4555
lwrist 7.30453
lhand -20.2038 -25.7162
lfingers 7.12502
lthumb 6.14307 4.17478
rfemur -13.3907 -5.05418 18.0015
rtibia 18.8253
rfoot -24.6897 -16.3424
rtoes -23.987
lfemur -26.8201 0.669054 -24.9346
ltibia 24.864
lfoot 7.97831 -11.012
ltoes 36.3812
1255
root 6.5225 27.9995 26.4184 8.62982 -4.20768 1.35437
lowerback 6.11449 0.970549 7.80249
upperback 1.97407 1.79191 2.63287
thorax -1.22718 0.892882 -1.77197
lowerneck -5.64685 -2.85088 -10.3229
upperneck 19.5218 -4.36879 9.30899
head 7.30185 -2.06801 4.44452
rclavicle 9.14409e-015 1.59028e-014
rhumerus -32.5831 -20.2922 -67.2996
rradius 32.005
rwrist -6.87372
rhand -15.2305 -20.8299
rfingers 7.12502
rthumb 10.9424 -50.5248
lclavicle 9.14409e-015 1.59028e-014
lhumerus -30.1257 -8.13234 76.02
lradius 40.2634
lwrist 6.43915
lhand -20.3954 -26.1502
lfingers 7.12502
lthumb 5.95806 3.74602
rfemur -13.1304 -4.95653 18.3508
rtibia 17.7748
rfoot -25.3579 -16.7254
rtoes -22.5579
lfemur -27.8603 0.502561 -24.3586
ltibia 26.1325
lfoot 10.8733 -11.1946
ltoes 39.4532
1256
root 6.48452 27.9722 26.4476 8.59521 -4.3216 1.20223
lowerback 6.34032 0.970312 7.6323
upperback 2.06118 1.797 2.53132
thorax -1.26458 0.896186 -1.78733
lowerneck -5.79624 -2.88582 -10.1359
upperneck 19.3643 -4.45615 9.50116
head 7.28522 -2.07753 4.46553
rclavicle -6.36111e-015 2.06736e-014
rhumerus -32.2008 -19.98 -68.0598
rradius 32.2063
rwrist -6.46285
rhand -15.3927 -20.4832
rfingers 7.12502
rthumb 10.786 -50.1862
lclavicle -6.36111e-015 2.06736e-014
lhumerus -29.9685 -8.66413 75.9449
lradius 39.8181
lwrist 5.50204
lhand -20.6558 -26.5283
lfingers 7.12502
lthumb 5.70672 3.37483
rfemur -12.9532 -4.7711 18.6988
rtibia 16.935
rfoot -26.1147 -17.1003
rtoes -20.7153
lfemur -28.9465 0.23301 -23.6975
ltibia 27.5887
lfoot 13.9517 -10.9292
ltoes 42.687
1257
root 6.44143 27.9388 26.4742 8.53569 -4.4415 1.10077
lowerback 6.55617 0.961671 7.32456
upperback 2.17234 1.77848 2.40039
thorax -1.27709 0.888998 -1.75454
lowerneck -5.88269 -2.89656 -9.89681
upperneck 19.1436 -4.516 9.68026
head 7.23246 -2.0733 4.47476
rclavicle 8.34896e-015 7.95139e-015
rhumerus -31.7993 -19.6026 -68.8662
rradius 32.3399
rwrist -6.05155
rhand -15.4648 -20.1253
rfingers 7.12502
rthumb 10.7164 -49.8319
lclavicle 8.34896e-015 7.95139e-015
lhumerus -29.6008 -9.23237 75.7626
lradius 39.1429
lwrist 4.55513
lhand -20.914 -26.8202
lfingers 7.12502
lthumb 5.4574 3.08948
rfemur -12.8482 -4.50591 18.9961
rtibia 16.2909
rfoot -26.9357 -17.4934
rtoes -18.4601
lfemur -30.0546 -0.104773 -23.0108
ltibia 29.2037
lfoot 16.8599 -10.2475
ltoes 45.6375
1258
root 6.39337 27.8994 26.4992 8.45871 -4.58846 1.0876
lowerback 6.75186 0.955844 6.84501
upperback 2.29124 1.74833 2.22602
thorax -1.27554 0.876342 -1.66954
lowerneck -5.90801 -2.88604 -9.6342
upperneck 18.9018 -4.55441 9.86771
head 7.15933 -2.0588 4.48466
rclavicle -1.59028e-014 6.36111e-015
rhumerus -31.4035 -19.1178 -69.7121
rradius 32.3931
rwrist -5.6755
rhand -15.4487 -19.7477
rfingers 7.12502
rthumb 10.732 -49.4536
lclavicle -1.59028e-014 6.36111e-015
lhumerus -29.0554 -9.82782 75.4813
lradius 38.2619
lwrist 3.70063
lhand -21.0951 -27.0162
lfingers 7.12502
lthumb 5.28255 2.89796
rfemur -12.8364 -4.19836 19.1968
rtibia 15.8915
rfoot -27.7626 -17.9055
rtoes -15.9352
lfemur -31.1468 -0.482832 -22.3542
ltibia 30.9268
lfoot 19.1608 -9.45738
ltoes 47.7919
1259
root 6.34177 27.8547 26.5242 8.36085 -4.77159 1.14145
lowerback 6.93426 0.957435 6.23551
upperback 2.40605 1.71631 2.0134
thorax -1.27377 0.862203 -1.55076
lowerneck -5.84389 -2.85172 -9.34629
upperneck 18.6443 -4.56603 10.0436
head 7.0617 -2.03391 4.48897
rclavicle 1.31198e-014 2.70347e-014
rhumerus -31.0384 -18.5039 -70.5813
rradius 32.3675
rwrist -5.34846
rhand -15.3761 -19.3741
rfingers 7.12502
rthumb 10.802 -49.0763
lclavicle 1.31198e-014 2.70347e-014
lhumerus -28.3661 -10.4162 75.1232
lradius 37.1979
lwrist 3.00572
lhand -21.1401 -27.1086
lfingers 7.12502
lthumb 5.23911 2.80659
rfemur -12.9267 -3.87621 19.3025
rtibia 15.7676
rfoot -28.5142 -18.3127
rtoes -13.4225
lfemur -32.1667 -0.909486 -21.7117
ltibia 32.7012
lfoot 20.5727 -8.89234
ltoes 49.0538
1260
root 6.28788 27.8061 26.5481 8.26942 -4.96161 1.18734
lowerback 7.10298 0.957353 5.59363
upperback 2.49715 1.67795 1.78665
thorax -1.28954 0.843612 -1.42722
lowerneck -5.66348 -2.76937 -9.05688
upperneck 18.3745 -4.52299 10.2486
head 6.9342 -1.98469 4.50799
rclavicle 7.15625e-015 0
rhumerus -30.7235 -17.7821 -71.4534
rradius 32.2823
rwrist -5.04458
rhand -15.2971 -19.0011
rfingers 7.12502
rthumb 10.8782 -48.6993
lclavicle 7.15625e-015 0
lhumerus -27.579 -10.9319 74.7094
lradius 35.9976
lwrist 2.46794
lhand -21.0507 -27.0781
lfingers 7.12502
lthumb 5.32538 2.83495
rfemur -13.1632 -3.64384 19.4024
rtibia 15.9786
rfoot -29.1179 -18.6142
rtoes -11.3136
lfemur -33.0998 -1.38889 -21.0056
ltibia 34.4625
lfoot 21.0652 -8.71534
ltoes 49.5894
1261
root 6.23462 27.7565 26.5718 8.20969 -5.15672 1.14188
lowerback 7.24353 0.948163 5.03807
upperback 2.55889 1.63101 1.56716
thorax -1.31746 0.819943 -1.3426
lowerneck -5.43024 -2.67636 -8.89131
upperneck 18.1828 -4.47386 10.547
head 6.8264 -1.93584 4.58164
rclavicle 6.75868e-015 1.82882e-014
rhumerus -30.4518 -17.0128 -72.3019
rradius 32.1576
rwrist -4.653
rhand -15.1262 -18.716
rfingers 7.12502
rthumb 11.043 -48.4055
lclavicle 6.75868e-015 1.82882e-014
lhumerus -26.7218 -11.3265 74.26
lradius 34.6907
lwrist 2.09089
lhand -20.8959 -26.9036
lfingers 7.12502
lthumb 5.47483 3.00572
rfemur -13.5745 -3.5756 19.5723
rtibia 16.506
rfoot -29.4604 -18.727
rtoes -10.0018
lfemur -33.9028 -1.94167 -20.144
ltibia 36.0753
lfoot 20.6816 -9.01361
ltoes 49.4947
1262
root 6.18488 27.7087 26.5968 8.19994 -5.34844 0.949562
lowerback 7.3411 0.918309 4.65507
upperback 2.5928 1.56608 1.37197
thorax -1.34619 0.787187 -1.32661
lowerneck -5.17596 -2.54256 -8.74549
upperneck 18.0969 -4.37449 10.8511
head 6.74381 -1.8645 4.66645
rclavicle 2.34566e-014 3.57812e-014
rhumerus -30.1964 -16.2389 -73.1153
rradius 31.9923
rwrist -4.14531
rhand -14.863 -18.5673
rfingers 7.12502
rthumb 11.2969 -48.2431
lclavicle 2.34566e-014 3.57812e-014
lhumerus -25.7915 -11.5669 73.7976
lradius 33.26
lwrist 1.8598
lhand -20.7601 -26.5648
lfingers 7.12502
lthumb 5.60594 3.34102
rfemur -14.1566 -3.7306 19.8597
rtibia 17.2957
rfoot -29.5002 -18.5617
rtoes -9.58861
lfemur -34.5356 -2.59035 -19.0759
ltibia 37.4059
lfoot 19.5443 -9.7762
ltoes 48.8737
1263
root 6.14104 27.6663 26.6252 8.25216 -5.55482 0.618066
lowerback 7.37226 0.870241 4.45187
upperback 2.60807 1.48613 1.19938
thorax -1.35324 0.747525 -1.38504
lowerneck -4.97068 -2.37879 -8.64826
upperneck 18.1619 -4.23857 11.1733
head 6.71509 -1.77539 4.77091
rclavicle 7.95139e-016 -2.46493e-014
rhumerus -29.9336 -15.4986 -73.8883
rradius 31.7854
rwrist -3.5066
rhand -14.5034 -18.5836
rfingers 7.12502
rthumb 11.6436 -48.2401
lclavicle 7.95139e-016 -2.46493e-014
lhumerus -24.7743 -11.6513 73.335
lradius 31.6831
lwrist 1.75788
lhand -20.723 -26.0417
lfingers 7.12502
lthumb 5.64179 3.86321
rfemur -14.8847 -4.10709 20.2471
rtibia 18.2654
rfoot -29.2478 -18.078
rtoes -9.88913
lfemur -34.9633 -3.3253 -17.8422
ltibia 38.3465
lfoot 17.8105 -10.8721
ltoes 47.8414
1264
root 6.1031 27.6324 26.6594 8.34475 -5.81415 0.213775
lowerback 7.33609 0.820389 4.34955
upperback 2.62111 1.40716 1.03177
thorax -1.32253 0.709318 -1.49334
lowerneck -4.85227 -2.20472 -8.62705
upperneck 18.383 -4.09662 11.5508
head 6.75276 -1.68052 4.91044
rclavicle 8.74653e-015 -1.59028e-015
rhumerus -29.6621 -14.8189 -74.617
rradius 31.5476
rwrist -2.74659
rhand -14.0815 -18.7307
rfingers 7.12502
rthumb 12.0505 -48.3638
lclavicle 8.74653e-015 -1.59028e-015
lhumerus -23.6747 -11.605 72.8805
lradius 29.9582
lwrist 1.77823
lhand -20.8442 -25.3415
lfingers 7.12502
lthumb 5.52475 4.5665
rfemur -15.6792 -4.6141 20.6574
rtibia 19.3044
rfoot -28.7527 -17.3512
rtoes -10.6728
lfemur -35.1268 -4.11262 -16.5579
ltibia 38.829
lfoot 15.6199 -12.0966
ltoes 46.4562
1265
root 6.06944 27.6094 26.7018 8.42888 -6.16003 -0.186404
lowerback 7.25513 0.786375 4.24397
upperback 2.64695 1.34605 0.85046
thorax -1.25264 0.680966 -1.61437
lowerneck -4.77915 -2.0139 -8.56625
upperneck 18.6992 -3.93732 11.9002
head 6.82517 -1.57427 5.03767
rclavicle 5.56597e-015 6.36111e-015
rhumerus -29.4058 -14.2067 -75.2969
rradius 31.2943
rwrist -1.91237
rhand -13.7057 -18.8892
rfingers 7.12502
rthumb 12.4129 -48.5006
lclavicle 5.56597e-015 6.36111e-015
lhumerus -22.5306 -11.4082 72.4364
lradius 28.1113
lwrist 1.84477
lhand -21.1208 -24.4949
lfingers 7.12502
lthumb 5.25775 5.41984
rfemur -16.4008 -5.1103 21.0061
rtibia 20.2673
rfoot -28.1067 -16.5237
rtoes -11.5583
lfemur -34.9481 -4.90841 -15.3559
ltibia 38.8225
lfoot 13.1257 -13.1904
ltoes 44.7356
